<?xml version="1.0" encoding="iso-8859-1"?>
<!-- Generator: Adobe Illustrator 19.0.0, SVG Export Plug-In . SVG Version: 6.00 Build 0)  -->
<svg version="1.1" id="Capa_1" xmlns="http://www.w3.org/2000/svg" xmlns:xlink="http://www.w3.org/1999/xlink" x="0px" y="0px"
	 viewBox="0 0 511.999 511.999" style="enable-background:new 0 0 511.999 511.999;" xml:space="preserve">
<g>
	<g>
		<path d="M508.7,312.717l-11.542-10.42c-13.076-11.806-20.576-28.68-20.576-46.297s7.5-34.491,20.576-46.297l11.542-10.42
			c3.142-2.837,4.158-7.345,2.536-11.254l-26.734-64.453c-1.62-3.906-5.523-6.388-9.747-6.156l-15.543,0.794
			c-17.575,0.911-34.805-5.726-47.252-18.175c-12.448-12.448-19.073-29.671-18.175-47.252l0.794-15.543
			c0.216-4.224-2.249-8.126-6.155-9.747L323.97,0.763c-3.909-1.619-8.417-0.605-11.254,2.536l-10.433,11.557
			c-11.796,13.067-28.659,20.561-46.304,20.561c-17.604,0-34.467-7.495-46.263-20.561L199.283,3.299
			c-2.837-3.142-7.346-4.156-11.254-2.536l-64.454,26.734c-3.906,1.621-6.371,5.523-6.155,9.747l0.794,15.543
			c0.898,17.582-5.727,34.805-18.175,47.252c-12.447,12.449-29.672,19.085-47.251,18.175l-15.543-0.794
			c-4.225-0.214-8.127,2.25-9.747,6.156L0.764,188.029c-1.621,3.909-0.606,8.417,2.536,11.254l11.556,10.432
			c13.067,11.796,20.561,28.658,20.561,46.304c0,17.604-7.494,34.466-20.561,46.263L3.3,312.716
			c-3.142,2.837-4.158,7.345-2.536,11.254L27.5,388.423c1.62,3.906,5.509,6.361,9.747,6.156l15.543-0.794
			c17.581-0.915,34.804,5.727,47.252,18.175c12.447,12.447,19.072,29.67,18.174,47.252l-0.794,15.543
			c-0.216,4.224,2.249,8.126,6.155,9.747l64.454,26.734c3.91,1.618,8.417,0.607,11.254-2.536l10.419-11.541
			c11.806-13.076,28.68-20.576,46.298-20.576c17.617,0,34.492,7.5,46.297,20.576l10.419,11.541c1.937,2.146,4.653,3.299,7.425,3.299
			c1.288,0,2.589-0.249,3.827-0.762l64.454-26.734c3.906-1.621,6.371-5.523,6.155-9.747l-0.794-15.543
			c-0.898-17.581,5.727-34.804,18.175-47.252s29.67-19.08,47.252-18.175l15.543,0.794c4.233,0.222,8.127-2.25,9.747-6.156
			l26.734-64.453C512.858,320.062,511.842,315.554,508.7,312.717z M468.733,374.246l-8.499-0.435
			c-23.223-1.189-45.972,7.565-62.415,24.007c-16.443,16.442-25.193,39.191-24.006,62.414l0.434,8.499l-51.416,21.326l-5.688-6.3
			c-15.59-17.269-37.876-27.174-61.14-27.176c-23.267,0-45.553,9.904-61.143,27.174l-5.688,6.3l-51.416-21.326l0.434-8.499
			c1.186-23.223-7.563-45.971-24.006-62.414c-16.443-16.443-39.193-25.191-62.415-24.007l-8.499,0.435l-21.327-51.416l6.315-5.701
			c17.26-15.583,27.159-37.855,27.159-61.149c0-23.253-9.899-45.526-27.159-61.108l-6.315-5.701l21.327-51.416l8.499,0.435
			c23.228,1.195,45.973-7.564,62.414-24.007c16.443-16.442,25.193-39.191,24.006-62.414l-0.434-8.499l51.416-21.326l5.701,6.315
			c15.582,17.26,37.855,27.158,61.149,27.158c23.254,0,45.527-9.898,61.109-27.158l5.701-6.315l51.416,21.325l-0.434,8.499
			c-1.186,23.223,7.564,45.972,24.006,62.414c16.443,16.443,39.194,25.205,62.415,24.007l8.499-0.435l21.326,51.416l-6.3,5.688
			c-17.27,15.592-27.174,37.877-27.174,61.143s9.904,45.551,27.174,61.143l6.3,5.688L468.733,374.246z"/>
	</g>
</g>
<g>
	<g>
		<path d="M256.233,101.424c-27.697,0-54.875,7.408-78.597,21.423c-4.755,2.808-6.332,8.941-3.523,13.696
			c2.81,4.753,8.942,6.333,13.696,3.522c20.643-12.196,44.304-18.642,68.424-18.642c74.292,0,134.733,60.441,134.733,134.733
			s-60.441,134.732-134.733,134.732c-15.066,0-29.868-2.474-43.995-7.353c-1.773-0.612-3.684-0.714-5.515-0.291l-46.172,10.667
			l-0.033-38.927c-0.002-2.533-0.966-4.971-2.697-6.822c-23.421-25.041-36.32-57.716-36.32-92.007
			c0-22.494,5.65-44.751,16.338-64.366c2.642-4.849,0.853-10.923-3.997-13.566c-4.849-2.644-10.923-0.853-13.566,3.996
			c-12.282,22.543-18.775,48.11-18.775,73.937c0,38.048,13.826,74.363,39.02,102.715l0.04,47.621
			c0.003,3.046,1.394,5.924,3.779,7.82c1.786,1.419,3.984,2.171,6.222,2.171c0.75,0,1.506-0.084,2.25-0.256l55.664-12.859
			c15.393,4.992,31.444,7.521,47.757,7.521c85.32,0,154.733-69.413,154.733-154.732
			C410.966,170.837,341.553,101.424,256.233,101.424z"/>
	</g>
</g>
<g>
	<g>
		<path d="M256.078,157.18c-31.981,0-58,26.019-58,58c0,5.522,4.477,10,10,10c5.523,0,10-4.478,10-10c0-20.953,17.047-38,38-38
			s38,17.047,38,38s-17.047,38-38,38c-5.523,0-10,4.478-10,10v39.808c0,5.522,4.477,10,10,10c5.523,0,10-4.478,10-10v-30.67
			c27.231-4.754,48-28.567,48-57.138C314.078,183.199,288.059,157.18,256.078,157.18z"/>
	</g>
</g>
<g>
	<g>
		<path d="M263.148,337.75c-1.86-1.861-4.44-2.931-7.07-2.931c-2.63,0-5.21,1.071-7.07,2.931c-1.86,1.859-2.93,4.439-2.93,7.069
			c0,2.631,1.07,5.211,2.93,7.07c1.86,1.861,4.44,2.93,7.07,2.93c2.63,0,5.21-1.07,7.07-2.93c1.86-1.859,2.93-4.439,2.93-7.07
			C266.078,342.189,265.008,339.609,263.148,337.75z"/>
	</g>
</g>
<g>
	<g>
		<circle cx="153.901" cy="153.809" r="10"/>
	</g>
</g>
<g>
	<g>
		<path d="M363.988,246.156c-5.523,0-10,4.478-10,10c0,37.402-20.827,70.974-54.352,87.617c-4.947,2.456-6.967,8.457-4.511,13.403
			c1.747,3.519,5.286,5.556,8.965,5.556c1.493,0,3.01-0.336,4.439-1.045c19.351-9.606,35.697-24.349,47.27-42.634
			c11.899-18.799,18.189-40.549,18.189-62.897C373.988,250.634,369.511,246.156,363.988,246.156z"/>
	</g>
</g>
<g>
</g>
<g>
</g>
<g>
</g>
<g>
</g>
<g>
</g>
<g>
</g>
<g>
</g>
<g>
</g>
<g>
</g>
<g>
</g>
<g>
</g>
<g>
</g>
<g>
</g>
<g>
</g>
<g>
</g>
</svg>
